<?xml version="1.0" encoding="iso-8859-1"?>
<!-- Generator: Adobe Illustrator 16.0.0, SVG Export Plug-In . SVG Version: 6.00 Build 0)  -->
<!DOCTYPE svg PUBLIC "-//W3C//DTD SVG 1.1//EN" "http://www.w3.org/Graphics/SVG/1.1/DTD/svg11.dtd">
<svg version="1.1" id="Capa_1" xmlns="http://www.w3.org/2000/svg" xmlns:xlink="http://www.w3.org/1999/xlink" x="0px" y="0px"
	 width="168.523px" height="168.524px" viewBox="0 0 168.523 168.524" style="enable-background:new 0 0 168.523 168.524;"
	 xml:space="preserve">
<g>
	<path d="M151.891,51.464c-9.187,0-16.653,7.47-16.653,16.643c0,4.92,2.178,9.305,5.59,12.355l-21.004,7.541l-29.89-35.545
		c6.443-2.299,11.101-8.395,11.101-15.628c0-9.178-7.468-16.654-16.648-16.654c-9.173,0-16.648,7.476-16.648,16.654
		c0,7.162,4.575,13.22,10.913,15.575L48.713,88.003l-20.996-7.541c3.409-3.051,5.584-7.436,5.584-12.355
		c0-9.173-7.467-16.643-16.648-16.643C7.478,51.464,0,58.934,0,68.107c0,7.815,5.442,14.349,12.712,16.132v45.119
		c0,0.321,0.113,0.591,0.179,0.886c-0.113,0.454-0.179,0.929-0.179,1.424c0,16.2,64.228,16.68,71.55,16.68
		c7.316,0,71.547-0.479,71.547-16.68c0-0.495-0.062-0.97-0.179-1.424c0.079-0.295,0.179-0.564,0.179-0.886V84.239
		c7.283-1.783,12.715-8.316,12.715-16.132C168.534,58.934,161.072,51.464,151.891,51.464z M75.837,36.835
		c0-4.715,3.839-8.554,8.553-8.554c4.709,0,8.549,3.839,8.549,8.554c0,4.714-3.84,8.548-8.549,8.548
		C79.676,45.383,75.837,41.55,75.837,36.835z M48.632,96.594c1.587,0.564,3.375,0.084,4.466-1.219l31.168-37.074l31.174,37.085
		c1.087,1.292,2.869,1.772,4.462,1.213l27.807-10.009v36.492c-17.508-7.794-57.739-8.079-63.447-8.079
		c-5.708,0-45.947,0.285-63.45,8.079V86.59L48.632,96.594z M84.272,140.248c-31.201,0-51.073-3.718-59.345-6.84
		c-1.627-0.611-2.843-1.213-3.57-1.74c2.587-1.909,10.972-4.524,24.97-6.359c9.869-1.298,22.502-2.215,37.945-2.215
		s28.083,0.917,37.95,2.215c14.001,1.835,22.386,4.45,24.964,6.359c-0.728,0.543-1.935,1.129-3.56,1.74
		C135.358,136.541,115.483,140.248,84.272,140.248z M8.116,68.107c0-4.709,3.839-8.543,8.554-8.543s8.548,3.834,8.548,8.543
		c0,4.714-3.834,8.554-8.548,8.554S8.116,72.821,8.116,68.107z M151.891,76.661c-4.714,0-8.554-3.839-8.554-8.554
		c0-4.709,3.84-8.543,8.554-8.543c4.704,0,8.554,3.834,8.554,8.543C160.434,72.821,156.6,76.661,151.891,76.661z"/>
</g>
<g>
</g>
<g>
</g>
<g>
</g>
<g>
</g>
<g>
</g>
<g>
</g>
<g>
</g>
<g>
</g>
<g>
</g>
<g>
</g>
<g>
</g>
<g>
</g>
<g>
</g>
<g>
</g>
<g>
</g>
</svg>
