<?xml version="1.0" encoding="iso-8859-1"?>
<!-- Generator: Adobe Illustrator 19.0.0, SVG Export Plug-In . SVG Version: 6.00 Build 0)  -->
<svg version="1.1" id="Capa_1" xmlns="http://www.w3.org/2000/svg" xmlns:xlink="http://www.w3.org/1999/xlink" x="0px" y="0px"
	 viewBox="0 0 512 512" style="enable-background:new 0 0 512 512;" xml:space="preserve">
<g>
	<g>
		<g>
			<path d="M424,352.008c-17.673,0-32,14.327-32,32c0,17.673,14.327,32,32,32c17.673,0,32-14.327,32-32
				C456,366.335,441.673,352.008,424,352.008z M424,400.008c-8.837,0-16-7.163-16-16s7.163-16,16-16s16,7.163,16,16
				S432.837,400.008,424,400.008z"/>
			<path d="M88,352.008c-17.673,0-32,14.327-32,32c0,17.673,14.327,32,32,32s32-14.327,32-32
				C120,366.335,105.673,352.008,88,352.008z M88,400.008c-8.837,0-16-7.163-16-16s7.163-16,16-16s16,7.163,16,16
				S96.837,400.008,88,400.008z"/>
			<path d="M504,264.008h-8v-184c0-4.418-3.582-8-8-8H296c-4.418,0-8,3.582-8,8v80h-96c-4.418,0-8,3.582-8,8v96h-8v-88
				c0-4.418-3.582-8-8-8H80c-3.229,0-6.141,1.94-7.384,4.92L34.4,264.568c-19.682,2.758-34.342,19.566-34.4,39.44v80
				c0,4.418,3.582,8,8,8h24.64c4.391,30.574,32.736,51.8,63.311,47.409c24.574-3.529,43.88-22.836,47.409-47.409h225.28
				c4.391,30.574,32.736,51.8,63.311,47.409c24.574-3.529,43.88-22.836,47.409-47.409H504c4.418,0,8-3.582,8-8v-112
				C512,267.589,508.418,264.008,504,264.008z M88,424.008c-22.091,0-40-17.909-40-40c0-22.091,17.909-40,40-40s40,17.909,40,40
				C127.974,406.088,110.08,423.981,88,424.008z M160,376.008h-16.64c-4.391-30.575-32.736-51.8-63.311-47.409
				c-24.574,3.529-43.88,22.835-47.409,47.409H16v-72c0-13.255,10.745-24,24-24h120V376.008z M160,264.008H52l33.336-80H160V264.008
				z M368,88.008h48v88l-19.2-14.4c-2.844-2.133-6.756-2.133-9.6,0l-19.2,14.4V88.008z M304,88.008h48v104c0,4.418,3.582,8,8,8
				c1.731,0,3.415-0.561,4.8-1.6l27.2-20.4l27.2,20.4c3.535,2.651,8.549,1.935,11.2-1.6c1.039-1.385,1.6-3.069,1.6-4.8v-104h48v176
				H304V88.008z M200,176.008h88v88h-88V176.008z M424,424.008c-22.091,0-40-17.909-40-40c0-22.091,17.909-40,40-40
				c22.091,0,40,17.909,40,40C463.974,406.088,446.08,423.981,424,424.008z M496,376.008h-16.64
				c-4.391-30.575-32.736-51.8-63.311-47.409c-24.574,3.529-43.88,22.835-47.409,47.409H176v-96h320V376.008z"/>
			<path d="M72.919,255.391c0.976,0.407,2.023,0.617,3.081,0.617h68c4.418,0,8-3.582,8-8v-48c0-4.418-3.582-8-8-8H96
				c-3.229,0-6.141,1.94-7.384,4.92l-20,48C66.915,249.005,68.842,253.69,72.919,255.391z M101.336,208.008H136v32H88
				L101.336,208.008z"/>
			<path d="M272,192.008h-56c-4.418,0-8,3.582-8,8v32c0,4.418,3.582,8,8,8h56c4.418,0,8-3.582,8-8v-32
				C280,195.589,276.418,192.008,272,192.008z M264,224.008h-40v-16h40V224.008z"/>
		</g>
	</g>
</g>
<g>
</g>
<g>
</g>
<g>
</g>
<g>
</g>
<g>
</g>
<g>
</g>
<g>
</g>
<g>
</g>
<g>
</g>
<g>
</g>
<g>
</g>
<g>
</g>
<g>
</g>
<g>
</g>
<g>
</g>
</svg>
